<?xml version="1.0" standalone="no"?>
<!DOCTYPE svg PUBLIC "-//W3C//DTD SVG 20010904//EN"
 "http://www.w3.org/TR/2001/REC-SVG-20010904/DTD/svg10.dtd">
<svg version="1.0" xmlns="http://www.w3.org/2000/svg"
 width="1200.000000pt" height="1200.000000pt" viewBox="0 0 1200.000000 1200.000000"
 preserveAspectRatio="xMidYMid meet">
<metadata>
Created by potrace 1.11, written by Peter Selinger 2001-2013
</metadata>
<g transform="translate(0.000000,1200.000000) scale(0.100000,-0.100000)"
fill="#000000" stroke="none">
<path d="M5445 9563 c-235 -22 -373 -268 -265 -477 30 -59 67 -96 138 -137 37
-22 47 -42 56 -119 3 -30 7 -64 10 -75 4 -20 17 -162 18 -200 4 -102 -26 -129
-203 -188 -317 -106 -609 -274 -838 -480 -56 -52 -104 -77 -144 -77 -27 0
-189 95 -330 193 -143 100 -139 95 -148 170 -13 106 -87 196 -178 214 -109 22
-190 -4 -259 -82 -97 -110 -69 -277 60 -366 49 -33 54 -34 144 -34 l93 0 87
-85 c48 -47 127 -129 175 -182 122 -136 123 -150 16 -320 -148 -236 -271 -540
-322 -798 -37 -188 -46 -197 -240 -225 -22 -3 -67 -10 -100 -15 -33 -5 -103
-12 -155 -15 l-95 -6 -52 50 c-107 102 -255 123 -388 54 -52 -27 -86 -65 -121
-133 -23 -46 -28 -68 -28 -135 -1 -68 3 -88 27 -137 55 -111 153 -177 274
-183 100 -5 169 25 246 105 31 33 63 60 70 61 48 3 252 -6 360 -15 118 -11
149 -47 162 -191 2 -33 7 -71 10 -85 2 -14 7 -45 10 -70 4 -25 11 -65 17 -90
5 -25 12 -56 14 -70 27 -143 123 -394 228 -595 73 -140 78 -154 64 -201 -9
-35 -160 -215 -267 -319 l-51 -50 -66 3 c-109 5 -196 -37 -250 -122 -23 -36
-26 -47 -31 -123 -16 -217 248 -349 422 -210 56 45 87 108 93 189 l5 70 81 65
c107 85 245 179 274 186 49 12 95 -13 192 -107 176 -168 371 -309 588 -425
142 -76 153 -107 107 -285 -9 -33 -17 -67 -18 -75 -2 -9 -16 -62 -32 -118
l-30 -101 -65 -31 c-250 -116 -265 -443 -26 -569 44 -23 63 -27 141 -27 72 0
99 4 135 22 160 77 230 272 150 422 -46 85 -46 75 19 226 95 218 151 303 202
306 10 1 27 2 37 2 9 0 46 -5 82 -11 98 -18 120 -21 185 -27 33 -4 80 -8 105
-11 51 -5 242 -5 310 1 99 8 196 17 220 22 101 17 234 47 307 68 154 45 189
33 263 -90 56 -93 110 -195 110 -209 0 -5 -11 -37 -25 -71 -99 -248 60 -513
319 -532 159 -12 294 58 369 192 63 112 66 241 7 360 -51 105 -117 158 -238
195 -39 12 -77 29 -85 38 -22 26 -108 242 -113 285 -8 63 17 97 125 171 292
198 537 457 734 777 68 110 86 124 155 123 59 -1 228 -53 376 -114 74 -31 76
-33 93 -82 36 -100 118 -166 218 -173 66 -5 107 6 167 47 156 107 127 352 -52
430 -53 23 -138 21 -191 -6 -17 -9 -40 -16 -49 -16 -14 0 -186 90 -250 131
-14 9 -56 37 -95 62 -38 24 -78 54 -88 65 -24 27 -36 79 -25 117 4 17 10 39
12 50 2 11 9 40 16 65 7 25 14 55 16 68 2 12 6 34 9 50 14 67 25 142 32 202
10 88 10 437 0 530 -5 41 -10 87 -12 102 -1 16 6 46 17 68 24 48 66 70 266
136 l140 47 47 -33 c177 -121 406 -18 431 193 13 111 -49 225 -152 277 -63 32
-179 35 -234 5 -63 -33 -101 -68 -125 -115 -13 -25 -29 -51 -37 -57 -15 -12
-142 -37 -293 -59 -122 -18 -168 4 -210 98 -15 35 -44 100 -66 145 -21 44 -39
83 -39 86 0 7 -74 132 -125 212 -91 143 -223 301 -369 443 -100 98 -117 129
-101 189 14 57 225 430 253 447 5 3 34 8 63 11 156 16 270 139 275 299 9 237
-227 388 -448 287 -57 -26 -112 -81 -145 -144 -22 -42 -27 -65 -27 -122 0 -38
4 -89 8 -112 8 -38 5 -47 -20 -80 -15 -21 -31 -40 -34 -43 -3 -3 -27 -32 -52
-66 -25 -33 -73 -89 -107 -125 -33 -35 -61 -67 -61 -71 0 -5 -19 -21 -42 -38
-59 -43 -95 -40 -222 19 -214 101 -441 173 -641 205 -150 23 -164 24 -350 31
-193 7 -209 9 -245 35 -24 17 -36 43 -68 143 -22 67 -50 166 -62 219 l-24 97
37 44 c113 138 95 349 -40 454 -66 52 -157 82 -228 76z m1610 -1867 c91 -87
85 -227 -13 -304 -73 -58 -168 -60 -245 -5 -112 79 -109 261 6 332 83 51 185
42 252 -23z m-2062 -464 c77 -35 115 -89 121 -170 8 -117 -75 -213 -194 -224
-48 -5 -119 19 -154 50 -56 52 -77 172 -41 241 51 99 173 146 268 103z m1517
-652 c136 -54 209 -171 205 -328 -2 -60 -8 -84 -35 -138 -73 -143 -213 -215
-367 -188 -118 20 -204 84 -254 191 -19 39 -23 65 -23 143 0 85 3 101 29 154
44 88 138 163 232 185 56 14 153 5 213 -19z m-1724 -773 c86 -45 125 -148 89
-234 -20 -48 -41 -71 -87 -94 -71 -36 -144 -22 -209 40 -42 41 -48 52 -54 102
-6 45 -3 63 15 101 12 25 30 54 40 63 46 42 147 53 206 22z m2861 -183 c108
-86 109 -240 1 -311 -34 -23 -53 -28 -102 -28 -51 0 -68 5 -105 30 -50 34 -79
83 -87 146 -8 65 36 145 96 175 67 34 146 29 197 -12z m-1807 -628 c68 -19
131 -76 166 -150 19 -40 22 -63 20 -120 -4 -84 -21 -127 -72 -180 -73 -75
-180 -102 -280 -70 -82 25 -156 99 -179 178 -42 145 28 293 162 342 42 15 130
16 183 0z"/>
</g>
</svg>
